<svg width="140" height="38" viewBox="0 0 140 38" fill="none" xmlns="http://www.w3.org/2000/svg">
<path d="M2.55268 0.434787C2.52313 0.471752 2.4751 0.482842 2.416 0.468056C2.33842 0.449573 2.33103 0.456966 2.3532 0.512415C2.4788 0.819233 2.82605 1.96518 3.09203 2.9263C3.79022 5.48434 4.1227 6.36414 4.73224 7.2772C5.59298 8.56731 6.90071 9.24749 8.51875 9.24749H8.92141L8.89925 8.16438C8.87708 7.00365 8.81798 6.43437 8.63327 5.66548C8.37468 4.57868 7.93877 3.6878 7.36987 3.07416C6.76772 2.41986 6.07322 1.99845 4.32218 1.21107C3.70526 0.937524 3.01815 0.597437 2.81127 0.464359C2.64503 0.360854 2.61918 0.357158 2.55268 0.434787Z" fill="white"/>
<path d="M10.0038 6.09428C9.77475 6.55636 9.59004 7.03692 9.50138 7.39918C9.41272 7.77993 9.34623 8.60058 9.38317 8.87413L9.40903 9.07374L9.64915 9.15877C10.1146 9.32511 10.207 9.27336 10.0481 8.92958C9.85972 8.52665 9.84864 7.95367 10.0223 7.3807C10.0629 7.23653 10.1885 6.88166 10.2956 6.58593C10.5727 5.83182 10.5653 5.90576 10.3769 5.83182C10.2919 5.79856 10.207 5.77268 10.1922 5.77268C10.1774 5.77268 10.0961 5.91685 10.0038 6.09428Z" fill="white"/>
<path d="M9.5568 9.49516C8.07544 9.67629 7.30705 10.1421 6.52019 11.3324C6.00301 12.1123 5.71856 12.8554 5.49691 13.9976C5.44519 14.2601 5.34545 14.7776 5.27526 15.1436C4.9354 16.8884 4.5586 17.6609 2.92578 19.9676C1.37423 22.156 0.86074 23.0543 0.454382 24.2927C0.103436 25.3647 0.0443299 25.8046 0.0184708 27.4015L0 28.7138L0.192096 29.3792C1.43703 33.7042 4.02664 36.3547 7.95722 37.3232C9.09872 37.6041 9.2391 37.6189 10.9421 37.6189C12.3681 37.6189 12.5121 37.6115 12.9924 37.5339C15.9662 37.0422 18.1125 35.7595 19.531 33.6266C19.6492 33.4528 19.7379 33.305 19.7305 33.2976C19.7231 33.2939 19.6012 33.268 19.4571 33.2421C18.903 33.146 18.3378 32.7653 17.9241 32.2071L17.7394 31.9594L17.3995 32.0112C16.3319 32.1738 15.3455 31.6969 14.9687 30.843C14.7803 30.4216 14.7175 29.7193 14.821 29.2276C14.8653 29.0132 14.8653 29.0058 14.7803 28.9504C14.0193 28.4513 13.528 27.675 13.528 26.9653C13.528 26.2519 13.9381 25.5347 14.6252 25.0431C14.7914 24.9248 14.8542 24.8582 14.8431 24.8139C14.7471 24.5071 14.7545 23.7862 14.8579 23.3981C14.9761 22.9619 15.3677 22.437 15.7482 22.2152C15.9994 22.0673 16.4279 21.9342 16.7419 21.9083C16.9894 21.8862 17.4734 21.9231 17.7135 21.9823C17.7874 22.0045 17.8169 21.9823 17.8871 21.8714C18.2381 21.3021 18.9215 20.8105 19.5089 20.7033L19.7638 20.6589L19.6123 20.4149C19.531 20.2818 19.1025 19.6201 18.6629 18.9511C17.7283 17.5316 17.4623 17.0917 16.8712 16.0123C15.6817 13.8461 15.2901 13.1881 14.6547 12.2935C13.9602 11.325 13.3064 10.593 12.7707 10.1901C12.3016 9.83524 11.6772 9.59127 11.016 9.50625C10.7537 9.47298 9.79692 9.46558 9.5568 9.49516Z" fill="white"/>
<path d="M26.6819 34.3531C26.4766 34.3904 26.1686 34.4371 25.7579 34.4931C25.3659 34.5677 24.9646 34.6051 24.5539 34.6051C24.1432 34.6051 23.7699 34.5771 23.4339 34.5211C23.1166 34.4651 22.8459 34.3531 22.6219 34.1851C22.3979 34.0171 22.2206 33.7931 22.0899 33.5131C21.9779 33.2144 21.9219 32.8317 21.9219 32.3651V16.1251C22.1272 16.0877 22.4259 16.0411 22.8179 15.9851C23.2286 15.9104 23.6392 15.8731 24.0499 15.8731C24.4606 15.8731 24.8246 15.9011 25.1419 15.9571C25.4779 16.0131 25.7579 16.1251 25.9819 16.2931C26.2059 16.4611 26.3739 16.6944 26.4859 16.9931C26.6166 17.2731 26.6819 17.6464 26.6819 18.1131V34.3531Z" fill="white"/>
<path d="M36.8816 34.8291C35.7802 34.8291 34.7536 34.6797 33.8016 34.3811C32.8682 34.0637 32.0469 33.5971 31.3376 32.9811C30.6469 32.3651 30.0962 31.5904 29.6856 30.6571C29.2936 29.7237 29.0976 28.6317 29.0976 27.3811C29.0976 26.1491 29.2936 25.0944 29.6856 24.2171C30.0962 23.3211 30.6282 22.5931 31.2816 22.0331C31.9349 21.4544 32.6816 21.0344 33.5216 20.7731C34.3616 20.4931 35.2202 20.3531 36.0976 20.3531C37.0869 20.3531 37.9829 20.5024 38.7856 20.8011C39.6069 21.0997 40.3069 21.5104 40.8856 22.0331C41.4829 22.5557 41.9402 23.1811 42.2576 23.9091C42.5936 24.6371 42.7616 25.4304 42.7616 26.2891C42.7616 26.9237 42.5842 27.4091 42.2296 27.7451C41.8749 28.0811 41.3802 28.2957 40.7456 28.3891L33.8296 29.4251C34.0349 30.0411 34.4549 30.5077 35.0896 30.8251C35.7242 31.1237 36.4522 31.2731 37.2736 31.2731C38.0389 31.2731 38.7576 31.1797 39.4296 30.9931C40.1202 30.7877 40.6802 30.5544 41.1096 30.2931C41.4082 30.4797 41.6602 30.7411 41.8656 31.0771C42.0709 31.4131 42.1736 31.7677 42.1736 32.1411C42.1736 32.9811 41.7816 33.6064 40.9976 34.0171C40.4002 34.3344 39.7282 34.5491 38.9816 34.6611C38.2349 34.7731 37.5349 34.8291 36.8816 34.8291ZM36.0976 23.8251C35.6496 23.8251 35.2576 23.8997 34.9216 24.0491C34.6042 24.1984 34.3429 24.3944 34.1376 24.6371C33.9322 24.8611 33.7736 25.1224 33.6616 25.4211C33.5682 25.7011 33.5122 25.9904 33.4936 26.2891L38.2816 25.5051C38.2256 25.1317 38.0202 24.7584 37.6656 24.3851C37.3109 24.0117 36.7882 23.8251 36.0976 23.8251Z" fill="white"/>
<path d="M50.8767 31.3571C51.1941 31.3571 51.5394 31.3291 51.9127 31.2731C52.3047 31.1984 52.5941 31.1051 52.7807 30.9931V28.7531L50.7647 28.9211C50.2421 28.9584 49.8127 29.0704 49.4767 29.2571C49.1407 29.4437 48.9727 29.7237 48.9727 30.0971C48.9727 30.4704 49.1127 30.7784 49.3927 31.0211C49.6914 31.2451 50.1861 31.3571 50.8767 31.3571ZM50.6527 20.3531C51.6607 20.3531 52.5754 20.4557 53.3967 20.6611C54.2367 20.8664 54.9461 21.1837 55.5247 21.6131C56.1221 22.0237 56.5794 22.5557 56.8967 23.2091C57.2141 23.8437 57.3727 24.5997 57.3727 25.4771V31.7491C57.3727 32.2344 57.2327 32.6357 56.9527 32.9531C56.6914 33.2517 56.3741 33.5131 56.0007 33.7371C54.7874 34.4651 53.0794 34.8291 50.8767 34.8291C49.8874 34.8291 48.9914 34.7357 48.1887 34.5491C47.4047 34.3624 46.7234 34.0824 46.1447 33.7091C45.5847 33.3357 45.1461 32.8597 44.8287 32.2811C44.5301 31.7024 44.3807 31.0304 44.3807 30.2651C44.3807 28.9771 44.7634 27.9877 45.5287 27.2971C46.2941 26.6064 47.4794 26.1771 49.0847 26.0091L52.7527 25.6171V25.4211C52.7527 24.8797 52.5101 24.4971 52.0247 24.2731C51.5581 24.0304 50.8767 23.9091 49.9807 23.9091C49.2714 23.9091 48.5807 23.9837 47.9087 24.1331C47.2367 24.2824 46.6301 24.4691 46.0887 24.6931C45.8461 24.5251 45.6407 24.2731 45.4727 23.9371C45.3047 23.5824 45.2207 23.2184 45.2207 22.8451C45.2207 22.3597 45.3327 21.9771 45.5567 21.6971C45.7994 21.3984 46.1634 21.1464 46.6487 20.9411C47.1901 20.7357 47.8247 20.5864 48.5527 20.4931C49.2994 20.3997 49.9994 20.3531 50.6527 20.3531Z" fill="white"/>
<path d="M68.9072 25.7571C68.9072 25.1784 68.7392 24.7584 68.4032 24.4971C68.0859 24.2171 67.6472 24.0771 67.0872 24.0771C66.7139 24.0771 66.3405 24.1237 65.9672 24.2171C65.6125 24.3104 65.3045 24.4504 65.0432 24.6371V34.3531C64.8565 34.4091 64.5579 34.4651 64.1472 34.5211C63.7552 34.5771 63.3445 34.6051 62.9152 34.6051C62.5045 34.6051 62.1312 34.5771 61.7952 34.5211C61.4779 34.4651 61.2072 34.3531 60.9832 34.1851C60.7592 34.0171 60.5819 33.7931 60.4512 33.5131C60.3392 33.2144 60.2832 32.8317 60.2832 32.3651V23.9651C60.2832 23.4611 60.3859 23.0504 60.5912 22.7331C60.8152 22.4157 61.1139 22.1264 61.4872 21.8651C62.1219 21.4171 62.9152 21.0531 63.8672 20.7731C64.8379 20.4931 65.9112 20.3531 67.0872 20.3531C69.1965 20.3531 70.8205 20.8197 71.9592 21.7531C73.0979 22.6677 73.6672 23.9464 73.6672 25.5891V34.3531C73.4805 34.4091 73.1819 34.4651 72.7712 34.5211C72.3792 34.5771 71.9685 34.6051 71.5392 34.6051C71.1285 34.6051 70.7552 34.5771 70.4192 34.5211C70.1019 34.4651 69.8312 34.3531 69.6072 34.1851C69.3832 34.0171 69.2059 33.7931 69.0752 33.5131C68.9632 33.2144 68.9072 32.8317 68.9072 32.3651V25.7571Z" fill="white"/>
<path d="M81.7314 30.8811C81.9928 30.9557 82.3288 31.0117 82.7394 31.0491C83.1501 31.0677 83.5421 31.0771 83.9154 31.0771C84.6621 31.0771 85.2781 30.9277 85.7634 30.6291C86.2674 30.3117 86.5194 29.8264 86.5194 29.1731C86.5194 28.5571 86.3141 28.1184 85.9034 27.8571C85.4928 27.5957 84.8674 27.4651 84.0274 27.4651H81.7314V30.8811ZM81.7314 24.0491H83.7754C84.5781 24.0491 85.1568 23.8997 85.5114 23.6011C85.8848 23.3024 86.0714 22.8637 86.0714 22.2851C86.0714 21.7811 85.8568 21.3797 85.4274 21.0811C85.0168 20.7824 84.3914 20.6331 83.5514 20.6331C83.2714 20.6331 82.9448 20.6424 82.5714 20.6611C82.2168 20.6797 81.9368 20.7077 81.7314 20.7451V24.0491ZM83.5514 34.8291C83.2341 34.8291 82.8608 34.8197 82.4314 34.8011C82.0021 34.7824 81.5541 34.7451 81.0874 34.6891C80.6394 34.6331 80.1914 34.5584 79.7434 34.4651C79.2954 34.3904 78.8848 34.2784 78.5114 34.1291C77.4848 33.7371 76.9714 33.0557 76.9714 32.0851V19.0091C76.9714 18.6171 77.0741 18.3184 77.2794 18.1131C77.5034 17.8891 77.8021 17.7117 78.1754 17.5811C78.8101 17.3571 79.6034 17.1984 80.5554 17.1051C81.5074 16.9931 82.4874 16.9371 83.4954 16.9371C85.8848 16.9371 87.7234 17.3384 89.0114 18.1411C90.2994 18.9437 90.9434 20.1851 90.9434 21.8651C90.9434 22.7051 90.7008 23.4331 90.2154 24.0491C89.7301 24.6464 89.0768 25.0851 88.2554 25.3651C89.1888 25.6264 89.9634 26.1024 90.5794 26.7931C91.2141 27.4837 91.5314 28.3517 91.5314 29.3971C91.5314 31.2451 90.8408 32.6171 89.4594 33.5131C88.0968 34.3904 86.1274 34.8291 83.5514 34.8291Z" fill="white"/>
<path d="M93.8314 16.9931C93.8314 16.2837 94.0647 15.6864 94.5314 15.2011C95.0167 14.7157 95.6514 14.4731 96.4354 14.4731C97.2194 14.4731 97.8447 14.7157 98.3114 15.2011C98.7967 15.6864 99.0394 16.2837 99.0394 16.9931C99.0394 17.7024 98.7967 18.2997 98.3114 18.7851C97.8447 19.2704 97.2194 19.5131 96.4354 19.5131C95.6514 19.5131 95.0167 19.2704 94.5314 18.7851C94.0647 18.2997 93.8314 17.7024 93.8314 16.9931ZM98.8154 34.3531C98.61 34.3904 98.302 34.4371 97.8914 34.4931C97.4994 34.5677 97.098 34.6051 96.6874 34.6051C96.2767 34.6051 95.9034 34.5771 95.5674 34.5211C95.25 34.4651 94.9794 34.3531 94.7554 34.1851C94.5314 34.0171 94.354 33.7931 94.2234 33.5131C94.1114 33.2144 94.0554 32.8317 94.0554 32.3651V20.9691C94.2607 20.9317 94.5594 20.8851 94.9514 20.8291C95.362 20.7544 95.7727 20.7171 96.1834 20.7171C96.594 20.7171 96.958 20.7451 97.2754 20.8011C97.6114 20.8571 97.8914 20.9691 98.1154 21.1371C98.3394 21.3051 98.5074 21.5384 98.6194 21.8371C98.75 22.1171 98.8154 22.4904 98.8154 22.9571V34.3531Z" fill="white"/>
<path d="M106.606 29.7051C106.606 30.1904 106.755 30.5357 107.054 30.7411C107.371 30.9464 107.81 31.0491 108.37 31.0491C108.65 31.0491 108.939 31.0304 109.238 30.9931C109.536 30.9371 109.798 30.8717 110.022 30.7971C110.19 31.0024 110.33 31.2357 110.442 31.4971C110.572 31.7397 110.638 32.0384 110.638 32.3931C110.638 33.1024 110.367 33.6811 109.826 34.1291C109.303 34.5771 108.37 34.8011 107.026 34.8011C105.383 34.8011 104.114 34.4277 103.218 33.6811C102.34 32.9344 101.902 31.7211 101.902 30.0411V18.0571C102.107 18.0011 102.396 17.9451 102.77 17.8891C103.162 17.8144 103.572 17.7771 104.002 17.7771C104.823 17.7771 105.458 17.9264 105.906 18.2251C106.372 18.5051 106.606 19.1117 106.606 20.0451V21.8371H110.274C110.386 22.0424 110.488 22.3037 110.582 22.6211C110.694 22.9197 110.75 23.2557 110.75 23.6291C110.75 24.2824 110.6 24.7584 110.302 25.0571C110.022 25.3371 109.639 25.4771 109.154 25.4771H106.606V29.7051Z" fill="white"/>
<path d="M120.089 34.8291C118.987 34.8291 117.961 34.6797 117.009 34.3811C116.075 34.0637 115.254 33.5971 114.545 32.9811C113.854 32.3651 113.303 31.5904 112.893 30.6571C112.501 29.7237 112.305 28.6317 112.305 27.3811C112.305 26.1491 112.501 25.0944 112.893 24.2171C113.303 23.3211 113.835 22.5931 114.489 22.0331C115.142 21.4544 115.889 21.0344 116.729 20.7731C117.569 20.4931 118.427 20.3531 119.305 20.3531C120.294 20.3531 121.19 20.5024 121.993 20.8011C122.814 21.0997 123.514 21.5104 124.093 22.0331C124.69 22.5557 125.147 23.1811 125.465 23.9091C125.801 24.6371 125.969 25.4304 125.969 26.2891C125.969 26.9237 125.791 27.4091 125.437 27.7451C125.082 28.0811 124.587 28.2957 123.953 28.3891L117.037 29.4251C117.242 30.0411 117.662 30.5077 118.297 30.8251C118.931 31.1237 119.659 31.2731 120.481 31.2731C121.246 31.2731 121.965 31.1797 122.637 30.9931C123.327 30.7877 123.887 30.5544 124.317 30.2931C124.615 30.4797 124.867 30.7411 125.073 31.0771C125.278 31.4131 125.381 31.7677 125.381 32.1411C125.381 32.9811 124.989 33.6064 124.205 34.0171C123.607 34.3344 122.935 34.5491 122.189 34.6611C121.442 34.7731 120.742 34.8291 120.089 34.8291ZM119.305 23.8251C118.857 23.8251 118.465 23.8997 118.129 24.0491C117.811 24.1984 117.55 24.3944 117.345 24.6371C117.139 24.8611 116.981 25.1224 116.869 25.4211C116.775 25.7011 116.719 25.9904 116.701 26.2891L121.489 25.5051C121.433 25.1317 121.227 24.7584 120.873 24.3851C120.518 24.0117 119.995 23.8251 119.305 23.8251Z" fill="white"/>
<path d="M139.74 30.3211C139.74 31.7397 139.208 32.8504 138.144 33.6531C137.08 34.4557 135.512 34.8571 133.44 34.8571C132.656 34.8571 131.928 34.8011 131.256 34.6891C130.584 34.5771 130.005 34.4091 129.52 34.1851C129.053 33.9424 128.68 33.6437 128.4 33.2891C128.138 32.9344 128.008 32.5144 128.008 32.0291C128.008 31.5811 128.101 31.2077 128.288 30.9091C128.474 30.5917 128.698 30.3304 128.96 30.1251C129.501 30.4237 130.117 30.6944 130.808 30.9371C131.517 31.1611 132.329 31.2731 133.244 31.2731C133.822 31.2731 134.261 31.1891 134.56 31.0211C134.877 30.8531 135.036 30.6291 135.036 30.3491C135.036 30.0877 134.924 29.8824 134.7 29.7331C134.476 29.5837 134.102 29.4624 133.58 29.3691L132.74 29.2011C131.116 28.8837 129.902 28.3891 129.1 27.7171C128.316 27.0264 127.924 26.0464 127.924 24.7771C127.924 24.0864 128.073 23.4611 128.372 22.9011C128.67 22.3411 129.09 21.8744 129.632 21.5011C130.173 21.1277 130.817 20.8384 131.564 20.6331C132.329 20.4277 133.169 20.3251 134.084 20.3251C134.774 20.3251 135.418 20.3811 136.016 20.4931C136.632 20.5864 137.164 20.7357 137.612 20.9411C138.06 21.1464 138.414 21.4171 138.676 21.7531C138.937 22.0704 139.068 22.4531 139.068 22.9011C139.068 23.3304 138.984 23.7037 138.816 24.0211C138.666 24.3197 138.47 24.5717 138.228 24.7771C138.078 24.6837 137.854 24.5904 137.556 24.4971C137.257 24.3851 136.93 24.2917 136.576 24.2171C136.221 24.1237 135.857 24.0491 135.484 23.9931C135.129 23.9371 134.802 23.9091 134.504 23.9091C133.888 23.9091 133.412 23.9837 133.076 24.1331C132.74 24.2637 132.572 24.4784 132.572 24.7771C132.572 24.9824 132.665 25.1504 132.852 25.2811C133.038 25.4117 133.393 25.5331 133.916 25.6451L134.784 25.8411C136.576 26.2517 137.845 26.8211 138.592 27.5491C139.357 28.2584 139.74 29.1824 139.74 30.3211Z" fill="white"/>
</svg>
