<svg width="26" height="25" viewBox="0 0 26 25" fill="none" xmlns="http://www.w3.org/2000/svg">
<path d="M12.8818 0C5.98184 0 0.381836 5.6 0.381836 12.5C0.381836 19.4 5.98184 25 12.8818 25C19.7818 25 25.3818 19.4 25.3818 12.5C25.3818 5.6 19.7818 0 12.8818 0ZM12.8818 3.75C14.9568 3.75 16.6318 5.425 16.6318 7.5C16.6318 9.575 14.9568 11.25 12.8818 11.25C10.8068 11.25 9.13184 9.575 9.13184 7.5C9.13184 5.425 10.8068 3.75 12.8818 3.75ZM12.8818 21.5C9.75684 21.5 6.99434 19.9 5.38184 17.475C5.41934 14.9875 10.3818 13.625 12.8818 13.625C15.3693 13.625 20.3443 14.9875 20.3818 17.475C18.7693 19.9 16.0068 21.5 12.8818 21.5Z" fill="#2D2D2D"/>
</svg>
