<svg width="17" height="16" viewBox="0 0 17 16" fill="none" xmlns="http://www.w3.org/2000/svg">
<path d="M11.817 10.0629H11.0943L10.8382 9.81589C11.7347 8.77301 12.2744 7.4191 12.2744 5.94625C12.2744 2.66209 9.61231 0 6.32815 0C3.04399 0 0.381897 2.66209 0.381897 5.94625C0.381897 9.23042 3.04399 11.8925 6.32815 11.8925C7.80099 11.8925 9.15491 11.3528 10.1978 10.4563L10.4448 10.7124V11.4351L15.0188 16L16.3819 14.6369L11.817 10.0629ZM6.32815 10.0629C4.05028 10.0629 2.21151 8.22413 2.21151 5.94625C2.21151 3.66838 4.05028 1.82962 6.32815 1.82962C8.60602 1.82962 10.4448 3.66838 10.4448 5.94625C10.4448 8.22413 8.60602 10.0629 6.32815 10.0629Z" fill="white"/>
</svg>
